<svg width="31" height="31" viewBox="0 0 31 31" fill="none" xmlns="http://www.w3.org/2000/svg">
<path d="M0.585786 27.5858C-0.195262 28.3668 -0.195262 29.6332 0.585786 30.4142C1.36684 31.1953 2.63316 31.1953 3.41421 30.4142L0.585786 27.5858ZM31 2C31 0.895432 30.1046 1.04269e-06 29 1.04269e-06L11 1.04269e-06C9.89543 1.04269e-06 9 0.895432 9 2C9 3.10457 9.89543 4 11 4H27V20C27 21.1046 27.8954 22 29 22C30.1046 22 31 21.1046 31 20L31 2ZM3.41421 30.4142L30.4142 3.41421L27.5858 0.585787L0.585786 27.5858L3.41421 30.4142Z" fill="white"/>
</svg>
