<svg width="142" height="49" viewBox="0 0 142 49" fill="none" xmlns="http://www.w3.org/2000/svg">
<path d="M5.24 24.96C4.17333 24.96 3.25333 24.6 2.48 23.88C1.73333 23.1333 1.36 22.1867 1.36 21.04C1.36 19.8933 1.73333 18.9733 2.48 18.28C3.25333 17.56 4.17333 17.2 5.24 17.2C6.33333 17.2 7.25333 17.56 8 18.28C8.74667 18.9733 9.12 19.8933 9.12 21.04C9.12 22.1867 8.74667 23.1333 8 23.88C7.25333 24.6 6.33333 24.96 5.24 24.96ZM5.24 39.32C4.17333 39.32 3.25333 38.96 2.48 38.24C1.73333 37.4933 1.36 36.5467 1.36 35.4C1.36 34.2533 1.73333 33.3333 2.48 32.64C3.25333 31.92 4.17333 31.56 5.24 31.56C6.33333 31.56 7.25333 31.92 8 32.64C8.74667 33.3333 9.12 34.2533 9.12 35.4C9.12 36.5467 8.74667 37.4933 8 38.24C7.25333 38.96 6.33333 39.32 5.24 39.32Z" fill="url(#paint0_linear_383_9)"/>
<path d="M13.7888 39V11H20.2688V33.72H34.3088V39H13.7888ZM51.0606 39.48C48.8473 39.48 46.794 39.12 44.9006 38.4C43.034 37.68 41.4073 36.6667 40.0206 35.36C38.6606 34.0533 37.594 32.52 36.8206 30.76C36.074 29 35.7006 27.08 35.7006 25C35.7006 22.92 36.074 21 36.8206 19.24C37.594 17.48 38.674 15.9467 40.0606 14.64C41.4473 13.3333 43.074 12.32 44.9406 11.6C46.8073 10.88 48.834 10.52 51.0206 10.52C53.234 10.52 55.2606 10.88 57.1006 11.6C58.9673 12.32 60.5806 13.3333 61.9406 14.64C63.3273 15.9467 64.4073 17.48 65.1806 19.24C65.954 20.9733 66.3406 22.8933 66.3406 25C66.3406 27.08 65.954 29.0133 65.1806 30.8C64.4073 32.56 63.3273 34.0933 61.9406 35.4C60.5806 36.68 58.9673 37.68 57.1006 38.4C55.2606 39.12 53.2473 39.48 51.0606 39.48ZM51.0206 33.96C52.274 33.96 53.4206 33.7467 54.4606 33.32C55.5273 32.8933 56.4606 32.28 57.2606 31.48C58.0606 30.68 58.674 29.7333 59.1006 28.64C59.554 27.5467 59.7806 26.3333 59.7806 25C59.7806 23.6667 59.554 22.4533 59.1006 21.36C58.674 20.2667 58.0606 19.32 57.2606 18.52C56.4873 17.72 55.5673 17.1067 54.5006 16.68C53.434 16.2533 52.274 16.04 51.0206 16.04C49.7673 16.04 48.6073 16.2533 47.5406 16.68C46.5006 17.1067 45.5806 17.72 44.7806 18.52C43.9806 19.32 43.354 20.2667 42.9006 21.36C42.474 22.4533 42.2606 23.6667 42.2606 25C42.2606 26.3067 42.474 27.52 42.9006 28.64C43.354 29.7333 43.9673 30.68 44.7406 31.48C45.5406 32.28 46.474 32.8933 47.5406 33.32C48.6073 33.7467 49.7673 33.96 51.0206 33.96ZM84.7306 39.48C82.5173 39.48 80.4773 39.1333 78.6106 38.44C76.7706 37.72 75.1573 36.7067 73.7706 35.4C72.4106 34.0933 71.344 32.56 70.5706 30.8C69.824 29.04 69.4506 27.1067 69.4506 25C69.4506 22.8933 69.824 20.96 70.5706 19.2C71.344 17.44 72.424 15.9067 73.8106 14.6C75.1973 13.2933 76.824 12.2933 78.6906 11.6C80.5573 10.88 82.6106 10.52 84.8506 10.52C87.3306 10.52 89.5573 10.9333 91.5306 11.76C93.5306 12.5867 95.2106 13.7867 96.5706 15.36L92.4106 19.2C91.3973 18.1333 90.2906 17.3467 89.0906 16.84C87.8906 16.3067 86.584 16.04 85.1706 16.04C83.8106 16.04 82.5706 16.2533 81.4506 16.68C80.3306 17.1067 79.3573 17.72 78.5306 18.52C77.7306 19.32 77.104 20.2667 76.6506 21.36C76.224 22.4533 76.0106 23.6667 76.0106 25C76.0106 26.3067 76.224 27.5067 76.6506 28.6C77.104 29.6933 77.7306 30.6533 78.5306 31.48C79.3573 32.28 80.3173 32.8933 81.4106 33.32C82.5306 33.7467 83.7573 33.96 85.0906 33.96C86.3706 33.96 87.6106 33.76 88.8106 33.36C90.0373 32.9333 91.224 32.2267 92.3706 31.24L96.0506 35.92C94.5306 37.0667 92.7573 37.9467 90.7306 38.56C88.7306 39.1733 86.7306 39.48 84.7306 39.48ZM90.1306 35.08V24.56H96.0506V35.92L90.1306 35.08ZM102.07 39V11H108.55V39H102.07ZM128.595 39.48C126.435 39.48 124.422 39.1333 122.555 38.44C120.715 37.72 119.115 36.7067 117.755 35.4C116.395 34.0933 115.328 32.56 114.555 30.8C113.808 29.04 113.435 27.1067 113.435 25C113.435 22.8933 113.808 20.96 114.555 19.2C115.328 17.44 116.395 15.9067 117.755 14.6C119.142 13.2933 120.755 12.2933 122.595 11.6C124.435 10.88 126.448 10.52 128.635 10.52C131.062 10.52 133.248 10.9467 135.195 11.8C137.168 12.6267 138.822 13.8533 140.155 15.48L135.995 19.32C135.035 18.2267 133.968 17.4133 132.795 16.88C131.622 16.32 130.342 16.04 128.955 16.04C127.648 16.04 126.448 16.2533 125.355 16.68C124.262 17.1067 123.315 17.72 122.515 18.52C121.715 19.32 121.088 20.2667 120.635 21.36C120.208 22.4533 119.995 23.6667 119.995 25C119.995 26.3333 120.208 27.5467 120.635 28.64C121.088 29.7333 121.715 30.68 122.515 31.48C123.315 32.28 124.262 32.8933 125.355 33.32C126.448 33.7467 127.648 33.96 128.955 33.96C130.342 33.96 131.622 33.6933 132.795 33.16C133.968 32.6 135.035 31.76 135.995 30.64L140.155 34.48C138.822 36.1067 137.168 37.3467 135.195 38.2C133.248 39.0533 131.048 39.48 128.595 39.48Z" fill="black"/>
<defs>
<linearGradient id="paint0_linear_383_9" x1="5.5" y1="17" x2="5" y2="39" gradientUnits="userSpaceOnUse">
<stop stop-color="#8642EB"/>
<stop offset="1" stop-color="#C12EFF"/>
</linearGradient>
</defs>
</svg>
