<svg width="372" height="450" viewBox="0 0 372 450" fill="none" xmlns="http://www.w3.org/2000/svg">
<path d="M226 101.021V67.0371C226 66.2559 225.512 65.8652 224.535 65.8652L18.4316 66.4512C17.6504 66.4512 17.2598 66.8418 17.2598 67.623L17.2598 104.244C17.2598 105.025 17.6504 105.709 18.4316 106.295L57.9824 133.688L18.4316 160.934C17.6504 161.52 17.2598 162.252 17.2598 163.131L17.2598 199.898C17.2598 200.777 17.6504 201.217 18.4316 201.217L224.535 201.803C225.512 201.803 226 201.412 226 200.631V166.646C226 165.865 225.512 165.475 224.535 165.475L71.459 165.182L117.162 133.688L71.459 102.486L224.535 102.193C225.512 102.193 226 101.803 226 101.021Z" fill="black"/>
<path d="M281.021 274H247.33C246.354 274 245.865 273.512 245.865 272.535L246.451 66.4316C246.451 65.6504 246.842 65.2598 247.623 65.2598H305.338C323.697 65.2598 338.199 70.875 348.844 82.1055C359.586 93.2383 364.957 108.424 364.957 127.662C364.957 141.725 362.174 153.98 356.607 164.43C350.943 174.781 343.619 182.789 334.635 188.453C325.65 194.117 315.885 196.949 305.338 196.949H282.486V272.535C282.486 273.512 281.998 274 281.021 274ZM305.338 100.855L282.486 101.148V160.621H305.338C311.686 160.621 317.203 157.594 321.891 151.539C326.578 145.387 328.922 137.428 328.922 127.662C328.922 119.85 326.822 113.453 322.623 108.473C318.424 103.395 312.662 100.855 305.338 100.855Z" fill="black"/>
<circle cx="49" cy="243" r="27" fill="#D4F665" stroke="black" stroke-width="10"/>
<circle cx="120" cy="243" r="21" fill="#271A3F"/>
<circle cx="194" cy="242" r="21" fill="#8642EB" stroke="black" stroke-width="22"/>
<circle cx="49" cy="243" r="7" fill="black"/>
</svg>
